<?xml version="1.0" encoding="UTF-8" standalone="no"?>
<svg
   width="210mm"
   height="297mm"
   viewBox="72.29508196721312 178.6764705882353 45.5485498108449 54.26470588235294"
   version="1.1"
   id="svg1"
   inkscape:version="1.4.2 (f4327f4, 2025-05-13)"
   sodipodi:docname="hintoneko.svg"
   xmlns:inkscape="http://www.inkscape.org/namespaces/inkscape"
   xmlns:sodipodi="http://sodipodi.sourceforge.net/DTD/sodipodi-0.dtd"
   xmlns="http://www.w3.org/2000/svg"
   xmlns:svg="http://www.w3.org/2000/svg">
  <sodipodi:namedview
     id="namedview1"
     pagecolor="#ffffff"
     bordercolor="#000000"
     borderopacity="0.25"
     inkscape:showpageshadow="2"
     inkscape:pageopacity="0.0"
     inkscape:pagecheckerboard="0"
     inkscape:deskcolor="#d1d1d1"
     inkscape:document-units="mm"
     inkscape:zoom="0.48693448"
     inkscape:cx="-139.64918"
     inkscape:cy="510.3356"
     inkscape:window-width="1920"
     inkscape:window-height="991"
     inkscape:window-x="-9"
     inkscape:window-y="-9"
     inkscape:window-maximized="1"
     inkscape:current-layer="layer1" />
  <defs
     id="defs1" />
  <g
     inkscape:label="Layer 1"
     inkscape:groupmode="layer"
     id="layer1">
    <g
       id="g1"
       transform="matrix(0.86230219,0,0,0.82866572,12.447039,34.612188)">
      <path
         style="fill:none;stroke:#000000;stroke-width:0.529167"
         d="m 82.680762,203.56765 c -0.448906,0.0285 -2.162712,0.21923 -2.445142,0.40752 -0.303842,0.20256 -0.629949,0.51874 -0.950891,0.67921 -0.0405,0.0202 -0.103823,-0.032 -0.13584,0 -0.03202,0.032 0.03767,0.11072 0,0.13584 -0.119142,0.0794 -0.306274,0.0346 -0.407524,0.13584 -0.101251,0.10125 -0.07181,0.27945 -0.135843,0.40752 -0.101251,0.2025 -0.401931,0.23074 -0.543364,0.40753 -0.08945,0.11181 -0.0718,0.27945 -0.135842,0.40752 -0.239779,0.47956 -0.660292,0.9784 -0.815047,1.49425 -0.107293,0.35765 -0.133008,0.74005 -0.271684,1.08674 -0.04757,0.11891 -0.214405,0.15713 -0.271682,0.27168 -0.271683,0.54336 0.135842,0.0679 0,0.40752 -0.105921,0.26481 -0.453269,0.6806 -0.543365,0.95089 -0.02864,0.0859 0.01775,0.18288 0,0.27169 0.23087,0.36768 -0.207647,0.35125 -0.271684,0.54336 -0.02864,0.0859 0.01966,0.18328 0,0.27168 -0.09319,0.41934 -0.336902,0.79885 -0.407522,1.22258 -0.123389,0.74032 -0.03383,2.80218 0.135839,3.39603 0.05563,0.19471 0.207648,0.35126 0.271683,0.54337 0.02864,0.0859 -0.03363,0.18759 0,0.27168 0.220281,0.5507 0.690776,1.10987 0.950891,1.63009 0.0079,0.0159 1.121854,2.07275 1.222571,2.17346 0.0716,0.0716 0.200088,0.0642 0.271682,0.13585 0.0716,0.0716 0.07968,0.18743 0.135842,0.27168 0.136057,0.20409 0.434589,0.32581 0.543364,0.54336 0.167286,0.33457 -0.394311,-0.12263 0.135843,0.40753 0.275431,0.27543 0.646729,0.43587 0.950888,0.6792 0.243084,0.19447 0.342099,0.47794 0.543367,0.67921 0.07159,0.0716 0.200089,0.0643 0.271682,0.13584 0.03202,0.032 -0.03202,0.10383 0,0.13584 0.07159,0.0716 0.190683,0.0751 0.271682,0.13585 0.602213,0.45165 1.114933,1.10365 1.765938,1.49425 0.122785,0.0737 0.284739,0.0622 0.407525,0.13584 0.10982,0.0659 0.165118,0.20064 0.271682,0.27168 0.119141,0.0794 0.288382,0.0564 0.407524,0.13584 0.402582,0.26839 0.82215,0.54811 1.222571,0.81505 0.187685,0.12513 0.589769,0.15904 0.815049,0.27169 1.564396,0.78219 3.219783,1.48078 4.890288,2.03762 0.122259,0.0408 0.285266,-0.0408 0.407525,0 0.192108,0.064 0.351255,0.20764 0.543364,0.27168 0.08591,0.0286 0.185769,-0.0286 0.271685,0 0.06075,0.0202 0.07509,0.11559 0.135839,0.13584 0.52663,0.17554 1.216242,-0.0474 1.765938,0.13584 0.06075,0.0202 0.09056,0.0906 0.135842,0.13584 0.181121,0.0453 0.359209,0.10515 0.543365,0.13584 0.153424,0.0256 1.289359,-0.0691 1.358413,0 0.03202,0.032 -0.0405,0.1156 0,0.13584 0.265303,0.13266 1.545055,0 1.90178,0 0.644152,0 1.506849,0.0952 2.173466,0 0.59262,-0.0847 1.1733,-0.32286 1.76593,-0.40752 0.76541,-0.10934 1.5547,-0.12076 2.3093,-0.27168 1.13358,-0.22672 -0.16603,-0.0302 0.67921,-0.27168 0.32928,-0.31298 0.73256,-0.0473 1.08673,-0.13584 0.21964,-0.0549 0.32858,-0.33593 0.54336,-0.40753 0.12887,-0.043 0.27574,0.0329 0.40753,0 0.87091,-0.21773 0.69658,-0.41621 1.22257,-0.67921 0.16698,-0.0835 0.37002,-0.0665 0.54336,-0.13584 0.17837,-0.0713 0.24768,-0.30096 0.40753,-0.40752 0.13016,-0.0868 0.40652,-0.13484 0.54336,-0.27168 0.032,-0.032 -0.032,-0.10383 0,-0.13585 0.0716,-0.0716 0.20009,-0.0642 0.27168,-0.13584 0.032,-0.032 -0.032,-0.10382 0,-0.13584 0.032,-0.032 0.0953,0.0202 0.13585,0 0.25819,-0.12909 0.45385,-0.49892 0.6792,-0.67921 0.1756,-0.14048 0.40395,-0.22163 0.54337,-0.40752 0.0979,-0.13061 0.15624,-0.29208 0.27168,-0.40752 0.0803,-0.4544 0.58416,-0.31248 0.81505,-0.54337 0.0716,-0.0716 0.0906,-0.18112 0.13584,-0.27168 0.18112,-0.18112 0.34659,-0.37939 0.54337,-0.54337 0.13311,-0.11093 0.47466,-0.20142 0.54336,-0.40752 0.0286,-0.0859 -0.0405,-0.19068 0,-0.27168 0.0202,-0.0405 0.11073,0.0377 0.13584,0 0.25581,-0.38372 0.20077,-0.94491 0.40753,-1.35842 0.073,-0.14602 0.21105,-0.25594 0.27168,-0.40752 0.11054,-0.27635 0.0776,-0.65989 0.13584,-0.95089 0.0435,-0.21734 0.2013,-0.46806 0.27168,-0.67921 0.18283,-0.54848 -0.22361,-2.2696 0,-2.71682 0.0286,-0.0573 0.10721,-0.0786 0.13585,-0.13585 0.082,-0.1641 0.0169,-2.51355 0,-2.58098 -0.0155,-0.0621 -0.1156,-0.0751 -0.13585,-0.13584 -0.12216,-0.3665 -0.0602,-0.84447 -0.13584,-1.22257 -0.0198,-0.0993 -0.11598,-0.1724 -0.13584,-0.27169 -0.0266,-0.1332 0.0329,-0.27574 0,-0.40752 -0.0311,-0.12425 -0.23118,-0.15018 -0.27168,-0.27168 -0.0656,-0.19676 -0.0396,-0.48678 -0.13584,-0.67921 -0.40102,-0.80203 -1.01209,-1.57933 -1.35842,-2.44514 -0.15137,-0.37844 -0.41347,-0.69707 -0.54336,-1.08674 -0.0286,-0.0859 0.064,-0.20764 0,-0.27168 -0.032,-0.032 -0.0906,0 -0.13584,0 -0.0906,-0.13584 -0.21105,-0.25594 -0.27169,-0.40752 -0.0336,-0.0841 0.0405,-0.19068 0,-0.27168 -0.0202,-0.0405 -0.10382,0.032 -0.13584,0 -0.26264,-0.26264 -0.39267,-0.78535 -0.54336,-1.08674 -0.19259,-0.38517 -1.08673,-1.41465 -1.08673,-1.63009"
         id="path19" />
      <path
         style="fill:none;stroke:#000000;stroke-width:0.529167"
         d="m 86.533762,205.0619 c 0.194842,-1.00265 1.053661,-1.6998 1.494255,-2.58099 0.181121,-0.36224 0.392951,-0.71069 0.543364,-1.08673 0.03363,-0.0841 -0.02864,-0.18577 0,-0.27168 0.198377,-0.59513 1.256332,-1.40342 1.630096,-1.90178 0.105312,-0.14041 0.407429,-0.81509 0.679206,-0.6792 0.681432,0.34071 0.809599,1.74413 0.950892,2.3093 0.09019,0.36074 0.317336,0.72598 0.407521,1.08673 0.22904,0.91615 -0.494138,-0.7599 0.135843,0.81505 0.02379,0.0594 0.115591,0.0751 0.135842,0.13584 0.02864,0.0859 0,0.18112 0,0.27168 0.04528,0.13584 0.07944,0.27591 0.13584,0.40753 0.07977,0.18612 0.216053,0.34865 0.271685,0.54336 0.125581,0.43955 -0.119671,0.43178 0.135839,0.81505 0.05518,0.0828 0.320133,0.6792 0.407525,0.6792 0.06404,0 -0.0718,-0.13583 -0.135843,-0.13583"
         id="path20" />
      <path
         style="fill:none;stroke:#000000;stroke-width:0.529167"
         d="m 98.309345,205.9497 c 1.052684,-0.92673 1.485423,-2.29754 2.309295,-3.39604 0.44792,-0.59723 0.89598,-1.65611 1.22257,-2.3093 0.12559,-0.25117 0.45226,-0.78068 0.67921,-0.95089 0.13061,-0.098 0.30957,-0.14107 0.40752,-0.27168 0.0543,-0.0725 -0.0502,-0.19633 0,-0.27169 0.0562,-0.0842 0.20009,-0.0642 0.27169,-0.13584 0.1145,-0.1145 0.14174,-0.49612 0.40752,-0.40752 0.50946,0.16982 0.43442,0.46131 0.67921,0.95089 0.5829,1.16581 1.18282,2.36564 1.76593,3.53187 0.10125,0.2025 0.33594,0.32858 0.40753,0.54337 0.043,0.12887 -0.0699,0.29104 0,0.40752 0.11648,0.19414 0.29104,0.34923 0.40752,0.54337 0.0233,0.0388 0,0.0906 0,0.13584 0.0453,0.0906 0.0751,0.19068 0.13585,0.27168 0.0768,0.10246 0.2144,0.15713 0.27168,0.27168 0.0679,0.13584 -0.034,0.27169 0,0.40753 0.0347,0.13891 0.10111,0.26861 0.13584,0.40752 0.0221,0.0885 0.20767,0.19985 0.13584,0.27169 -0.032,0.032 -0.0906,0 -0.13584,0"
         id="path21" />
      <path
         style="fill:#000000;fill-opacity:1;stroke:#000000;stroke-width:0.529167;stroke-opacity:1"
         d="m 89.954882,215.20973 c -0.08004,-0.032 -0.208116,-0.1761 -0.240136,-0.0961 -0.03202,0.08 0.321924,0.12331 0.240136,0.0961 -0.02267,-0.008 -0.429614,-0.14145 -0.480272,-0.19211 -0.01593,-0.0159 -0.01593,-0.36827 0,-0.38421 0.01132,-0.0113 0.04087,0.0143 0.04803,0 0.02148,-0.043 -0.03396,-0.11012 0,-0.14409 0.02265,-0.0226 0.07341,0.0226 0.09605,0 0.09697,-0.097 0.126997,-0.18356 0.240136,-0.24013 0.04296,-0.0215 0.09605,0 0.144081,0 0.05858,0 0.232693,-0.0277 0.288163,0 0.04848,0.0242 0.271984,0.35185 0.288163,0.38422 0.01601,0.032 0.01154,0.27663 0,0.28816 -0.01132,0.0113 -0.0367,-0.0113 -0.04803,0 -0.09937,0.0994 0.15185,-0.004 -0.04803,0.096 -0.142843,0.0714 -0.37964,0.13637 -0.528299,0.19211 z"
         id="path22" />
      <path
         style="fill:#000000;fill-opacity:1;stroke:#000000;stroke-width:0.529167;stroke-opacity:1"
         d="m 101.57745,215.35381 c -0.08,-0.032 -0.20811,-0.1761 -0.24013,-0.0961 -0.032,0.08 0.32192,0.12331 0.24013,0.0961 -0.0227,-0.008 -0.42961,-0.14145 -0.48027,-0.19211 -0.0159,-0.0159 -0.0159,-0.36827 0,-0.38421 0.0113,-0.0113 0.0409,0.0143 0.048,0 0.0215,-0.043 -0.034,-0.11012 0,-0.14409 0.0226,-0.0226 0.0734,0.0226 0.096,0 0.097,-0.097 0.127,-0.18356 0.24014,-0.24013 0.043,-0.0215 0.0961,0 0.14408,0 0.0586,0 0.23269,-0.0277 0.28816,0 0.0485,0.0242 0.27198,0.35185 0.28816,0.38422 0.016,0.032 0.0115,0.27663 0,0.28816 -0.0113,0.0113 -0.0367,-0.0113 -0.048,0 -0.0994,0.0994 0.15185,-0.004 -0.048,0.096 -0.14284,0.0714 -0.37964,0.13637 -0.5283,0.19211 z"
         id="path23" />
      <path
         style="fill:none;fill-opacity:1;stroke:#000000;stroke-width:0.529167;stroke-opacity:1"
         d="m 94.517463,197.19954 c -0.03202,-0.12807 0.03202,-0.41623 -0.09606,-0.38421 -0.128071,0.032 0.121944,0.51367 0.09606,0.38421 -0.05789,-0.28946 -0.143579,-0.57331 -0.192109,-0.86449 -0.02633,-0.15791 0.0716,-0.33708 0,-0.48027 -0.01431,-0.0286 -0.08174,0.0286 -0.09605,0 -0.102235,-0.20446 -0.192109,-1.34266 -0.192109,-1.63292 0,-0.0752 0.04793,-0.43234 0,-0.48027 -0.05075,-0.0507 -0.819515,-0.0678 -0.960543,-0.0961 -0.229053,-0.0458 -0.445641,-0.13542 -0.67238,-0.19211 -0.192109,-0.048 0,0.0961 -0.288163,0 -0.08591,-0.0286 -0.11111,-0.1516 -0.192109,-0.1921 -0.05728,-0.0286 -0.16347,0.0573 -0.192109,0 -0.375232,-0.75047 0.476798,0.38074 -0.192108,-0.28817 -0.02265,-0.0226 0.01431,-0.0674 0,-0.096 -0.141248,-0.2825 -0.375201,-0.54928 -0.480272,-0.86449 -0.08697,-0.2609 -0.07691,-0.53804 -0.192109,-0.76843 -0.04295,-0.0859 0.03038,-0.19704 0,-0.28817 -0.01431,-0.0429 -0.08173,-0.0531 -0.09605,-0.096 -0.06195,-0.18586 -0.06064,-1.64309 0,-1.82503 0.01013,-0.0304 0.07341,0.0226 0.09605,0 0.04041,-0.0404 -0.0176,-0.34904 0,-0.38422 0.31274,-0.62548 0.09627,0.19147 0.288163,-0.38422 0.04803,-0.14408 -0.09605,-0.096 0,-0.28816 0.01431,-0.0286 0.06404,0 0.09605,0 0.03202,-0.064 0.07341,-0.12419 0.09605,-0.19211 0.01013,-0.0304 -0.02265,-0.0734 0,-0.0961 0.02265,-0.0226 0.06941,0.0178 0.09605,0 0.249277,-0.16618 0.146436,-0.17162 0.288163,-0.38421 0.178911,-0.26837 0.538411,-0.42298 0.768435,-0.57633 0.170534,-0.11369 0.295156,-0.38771 0.480271,-0.48027 0.12077,-0.0604 0.449131,-0.25636 0.576326,-0.28816 0.06213,-0.0155 0.134835,0.0286 0.192109,0 0.02864,-0.0143 -0.02664,-0.0783 0,-0.0961 0.269275,-0.17951 0.456914,-0.0441 0.768435,-0.096 0.04466,-0.007 0.05555,-0.0758 0.09605,-0.0961 0.02339,-0.0117 0.385511,-0.0645 0.480272,-0.0961 0.141978,-0.0473 2.281594,-0.0399 2.401358,0 0.247139,0.0824 0.438137,0.2671 0.67238,0.38422 0.102241,0.0511 0.08987,-0.0511 0.192109,0 0.205311,0.10266 0.104759,0.34272 0.288163,0.48027 0.07684,0.0576 0.194977,-0.0233 0.288163,0 0.08786,0.022 0.111109,0.15161 0.192109,0.19211 0.02864,0.0143 0.07341,-0.0226 0.09605,0 0.04528,0.0453 -0.02864,0.13483 0,0.19211 0.199877,0.39975 -0.0066,-0.10269 0.192109,0.096 0.02265,0.0226 -0.01431,0.0674 0,0.096 0.02024,0.0405 0.06404,0.064 0.09605,0.0961 0.06404,0.096 0.149236,0.18098 0.192109,0.28816 0.02379,0.0595 -0.01553,0.12999 0,0.19211 0.114726,0.4589 0.270084,0.92439 0.480274,1.34476 0.1306,0.26121 -0.0469,0.87125 0,1.15265 0.10422,0.62531 0.44136,1.52472 0,2.1132 -0.266049,0.35473 -0.568066,0.66825 -0.960546,0.86449 -0.0985,0.0493 -0.285716,0.0468 -0.384217,0.096 -0.0405,0.0202 -0.0531,0.0817 -0.09605,0.0961 -0.132558,0.0442 -0.502012,0.0217 -0.576326,0.096 -0.02265,0.0226 0.01431,0.0674 0,0.096 -0.07988,0.15976 -0.226724,0.29596 -0.288163,0.48028 -0.042,0.12602 -0.0021,0.38621 -0.09605,0.48027 -0.02265,0.0226 -0.07341,-0.0226 -0.09605,0 -0.08263,0.0826 0.03912,0.45898 0,0.57632 -0.07947,0.23841 -0.183894,0.46385 -0.288163,0.67238 -0.03842,0.0769 0.03842,0.21132 0,0.28817 -0.03202,0.064 -0.160089,0.032 -0.192109,0.096 -0.03842,0.0769 0.03842,0.21132 0,0.28816 -0.08899,0.17798 -0.218302,0.36675 -0.288163,0.57633 -0.05206,0.15617 0.09909,0.3827 -0.09605,0.48027 -0.3351,0.16755 -2.126189,-0.1523 -2.305304,-0.19211 z"
         id="path24" />
      <path
         style="fill:none;fill-opacity:1;stroke:#000000;stroke-width:0.529167;stroke-opacity:1"
         d="m 95.093789,194.79819 c 0,-0.12808 0.128074,-0.38422 0,-0.38422 -0.128072,0 0,0.51229 0,0.38422 0,-0.14229 0.08321,-1.38331 0,-1.63293 -0.01431,-0.0429 -0.08173,-0.0531 -0.09606,-0.096 -0.07816,-0.23448 -0.08212,-0.45239 -0.192108,-0.67238 -0.128072,-0.25615 0.128074,-0.7044 0,-0.96055 -0.02024,-0.0405 -0.0758,-0.0556 -0.09606,-0.0961 -0.02822,-0.0564 -0.05427,-0.71417 0,-0.76844 0.09819,-0.0982 0.333709,-0.096 0.480272,-0.096 0.09106,0 0.304446,-0.0399 0.384217,0 0.294606,0.1473 0.406226,1.32275 0.192109,1.53687 -0.03714,0.0371 -0.400193,0.17613 -0.480272,0.096 -0.02397,-0.024 -0.202766,-1.08506 0,-1.15265 0.06075,-0.0202 0.128075,0 0.192109,0 0.06404,-0.064 0.108027,-0.15847 0.192109,-0.19211 0.06415,-0.0257 0.643522,-0.0289 0.67238,0 0.02265,0.0226 -0.01431,0.0674 0,0.0961 0.140208,0.28041 0.135901,0.59269 0,0.86449 -0.02864,0.0573 0.04528,0.14683 0,0.19211 -0.02265,0.0226 -0.06403,0 -0.09605,0 -0.06404,0 -0.146828,0.0453 -0.192109,0 -0.09636,-0.0964 -0.198707,-0.76184 -0.09605,-0.86449 0.02265,-0.0226 0.06742,0.0143 0.09605,0 0.081,-0.0405 0.111109,-0.15161 0.192109,-0.19211 0.171836,-0.0859 0.64099,-0.39991 0.864489,-0.28817 0.108132,0.0541 0.234669,0.37329 0.288163,0.48028 0.03989,0.0798 0,0.29315 0,0.38421 0,0.19965 0.08694,0.59456 0,0.76844 -0.07004,0.14009 -0.15366,0.15366 -0.192109,0.19211 -0.0034,0.003 -0.06185,0.25396 -0.09605,0.28816 -0.02265,0.0226 -0.07341,-0.0226 -0.09605,0 -0.04528,0.0453 0.02864,0.13483 0,0.19211 0.05325,0.23789 -0.216566,0.24103 -0.288163,0.38422 -0.02911,0.0582 -0.0558,0.24791 -0.09605,0.28816 -0.02265,0.0226 -0.07341,-0.0226 -0.09605,0 -0.06027,0.0603 -0.02178,0.406 -0.09606,0.48027 -0.02265,0.0226 -0.07341,-0.0226 -0.09605,0 -0.02543,0.0254 0,0.24861 0,0.28816"
         id="path25" />
      <path
         style="fill:none;fill-opacity:1;stroke:#000000;stroke-width:0.529167;stroke-opacity:1"
         d="m 94.517463,197.58376 c -0.270473,0.13464 0.0082,0.752 -0.09606,0.96054 -0.01431,0.0286 -0.08173,-0.0286 -0.09605,0 -0.153686,0.30738 0.153689,0.84528 0,1.15266 -0.04754,0.0951 -0.334798,0.43363 -0.192109,0.57632 0.04793,0.0479 0.405062,0 0.480272,0 0.236178,0 2.273509,0.0318 2.305304,0 0.03041,-0.0304 0,-2.51324 0,-2.78557"
         id="path26" />
      <path
         style="fill:none;fill-opacity:1;stroke:#000000;stroke-width:0.529167;stroke-opacity:1"
         d="m 94.613517,198.5443 c 0.128074,0 0.384217,0.12808 0.384217,0 0,-0.12807 -0.512288,0 -0.384217,0 0.736418,0 1.472835,0 2.20925,0"
         id="path27" />
      <path
         style="fill:none;fill-opacity:1;stroke:#000000;stroke-width:0.529167;stroke-opacity:1"
         d="m 94.421408,199.31274 c 0.678797,0.59277 1.353963,0.19211 2.017141,0.19211"
         id="path28" />
      <path
         style="fill:none;fill-opacity:1;stroke:#000000;stroke-width:0.529167;stroke-opacity:1"
         d="m 95.670115,181.63874 c 0.03202,0.12808 -0.03202,0.41624 0.09605,0.38422 0.128074,-0.032 -0.09605,-0.51623 -0.09605,-0.38422 0,0.31548 0.09605,0.63843 0.09605,0.96055 0,0.36491 0.102619,1.22901 0,1.53686 -0.0489,0.14672 -0.09605,0.11213 -0.09605,0.28817"
         id="path29" />
      <path
         style="fill:none;fill-opacity:1;stroke:#000000;stroke-width:0.529167;stroke-opacity:1"
         d="m 90.387127,183.07956 c 0.128074,0.12807 0.256145,0.51229 0.384217,0.38421 0.128074,-0.12807 -0.465217,-0.54621 -0.384217,-0.38421 0.163261,0.32652 0.345858,0.70122 0.67238,0.86449 0.132493,0.0662 0.08592,-0.11633 0.192109,0.096 0.01431,0.0286 -0.02265,0.0734 0,0.096 0.02265,0.0227 0.07341,-0.0226 0.09605,0 0.0177,0.0177 0.07836,0.27047 0.09605,0.28817 0.02265,0.0226 0.06568,-0.0101 0.09605,0 0.215362,0.0718 0.227901,0.20343 0.288163,0.38422 0.0586,0.1758 0.183255,0.38421 0.384217,0.38421"
         id="path30" />
      <path
         style="fill:none;fill-opacity:1;stroke:#000000;stroke-width:0.529167;stroke-opacity:1"
         d="m 99.224125,185.0967 c 0.284591,-0.22948 0.853845,-0.18501 1.152655,-0.38422 0.37659,-0.25106 0.68045,-0.58036 1.05659,-0.76843 0.17684,-0.0884 0.0153,-0.19975 0.19211,-0.28817 0.0582,-0.0291 0.24792,-0.0558 0.28817,-0.096 0.12807,-0.12807 -0.16009,-0.0961 0.096,-0.0961"
         id="path31" />
    </g>
  </g>
</svg>
