<?xml version='1.0' encoding='utf-8'?>
<svg xmlns="http://www.w3.org/2000/svg" xmlns:inkscape="http://www.inkscape.org/namespaces/inkscape" xmlns:sodipodi="http://sodipodi.sourceforge.net/DTD/sodipodi-0.dtd" width="210mm" height="297mm" viewBox="71.50063051702396 131.55882352941177 56.670870113493066 38.11764705882353" version="1.1" id="svg1" inkscape:version="1.4.2 (f4327f4, 2025-05-13)" sodipodi:docname="hintopointneko.svg">
  <sodipodi:namedview id="namedview1" pagecolor="#ffffff" bordercolor="#000000" borderopacity="0.25" inkscape:showpageshadow="2" inkscape:pageopacity="0.0" inkscape:pagecheckerboard="0" inkscape:deskcolor="#d1d1d1" inkscape:document-units="mm" inkscape:zoom="0.97386896" inkscape:cx="285.45935" inkscape:cy="697.73247" inkscape:window-width="1920" inkscape:window-height="991" inkscape:window-x="-9" inkscape:window-y="-9" inkscape:window-maximized="1" inkscape:current-layer="layer1" />
  <defs id="defs1" />
  <g inkscape:label="Layer 1" inkscape:groupmode="layer" id="layer1">
    <path style="fill:none;stroke:#000000;stroke-width:0.529167" d="m 81.912327,140.45995 c -0.448906,0.0285 -2.162712,0.21923 -2.445142,0.40752 -0.303842,0.20256 -0.629949,0.51874 -0.950891,0.67921 -0.0405,0.0202 -0.103823,-0.032 -0.13584,0 -0.03202,0.032 0.03767,0.11072 0,0.13584 -0.119142,0.0794 -0.306274,0.0346 -0.407524,0.13584 -0.101251,0.10125 -0.07181,0.27945 -0.135843,0.40752 -0.101251,0.2025 -0.401931,0.23074 -0.543364,0.40753 -0.08945,0.11181 -0.0718,0.27945 -0.135842,0.40752 -0.239779,0.47956 -0.660292,0.9784 -0.815047,1.49425 -0.107293,0.35765 -0.133008,0.74005 -0.271684,1.08674 -0.04757,0.11891 -0.214405,0.15713 -0.271682,0.27168 -0.271683,0.54336 0.135842,0.0679 0,0.40752 -0.105921,0.26481 -0.453269,0.6806 -0.543365,0.95089 -0.02864,0.0859 0.01775,0.18288 0,0.27169 0.23087,0.36768 -0.207647,0.35125 -0.271684,0.54336 -0.02864,0.0859 0.01966,0.18328 0,0.27168 -0.09319,0.41934 -0.336902,0.79885 -0.407522,1.22258 -0.123389,0.74032 -0.03383,2.80218 0.135839,3.39603 0.05563,0.19471 0.207648,0.35126 0.271683,0.54337 0.02864,0.0859 -0.03363,0.18759 0,0.27168 0.220281,0.5507 0.690776,1.10987 0.950891,1.63009 0.0079,0.0159 1.121854,2.07275 1.222571,2.17346 0.0716,0.0716 0.200088,0.0642 0.271682,0.13585 0.0716,0.0716 0.07968,0.18743 0.135842,0.27168 0.136057,0.20409 0.434589,0.32581 0.543364,0.54336 0.167286,0.33457 -0.394311,-0.12263 0.135843,0.40753 0.275431,0.27543 0.646729,0.43587 0.950888,0.6792 0.243084,0.19447 0.342099,0.47794 0.543367,0.67921 0.07159,0.0716 0.200089,0.0643 0.271682,0.13584 0.03202,0.032 -0.03202,0.10383 0,0.13584 0.07159,0.0716 0.190683,0.0751 0.271682,0.13585 0.602213,0.45165 1.114933,1.10365 1.765938,1.49425 0.122785,0.0737 0.284739,0.0622 0.407525,0.13584 0.10982,0.0659 0.165118,0.20064 0.271682,0.27168 0.119141,0.0794 0.288382,0.0564 0.407524,0.13584 0.402582,0.26839 0.82215,0.54811 1.222571,0.81505 0.187685,0.12513 0.589769,0.15904 0.815049,0.27169 1.564396,0.78219 3.219783,1.48078 4.890288,2.03762 0.122259,0.0408 0.285266,-0.0408 0.407525,0 0.192108,0.064 0.351255,0.20764 0.543364,0.27168 0.08591,0.0286 0.185769,-0.0286 0.271685,0 0.06075,0.0202 0.07509,0.11559 0.135839,0.13584 0.52663,0.17554 1.216242,-0.0474 1.765938,0.13584 0.06075,0.0202 0.09056,0.0906 0.135842,0.13584 0.181121,0.0453 0.359209,0.10515 0.543365,0.13584 0.153424,0.0256 1.289359,-0.0691 1.358413,0 0.03202,0.032 -0.0405,0.1156 0,0.13584 0.265303,0.13266 1.545055,0 1.90178,0 0.644152,0 1.506849,0.0952 2.173462,0 0.592627,-0.0847 1.173309,-0.32286 1.765939,-0.40752 0.76541,-0.10934 1.5547,-0.12076 2.3093,-0.27168 1.13358,-0.22672 -0.16603,-0.0302 0.67921,-0.27168 0.32928,-0.31298 0.73256,-0.0473 1.08673,-0.13584 0.21964,-0.0549 0.32858,-0.33593 0.54336,-0.40753 0.12887,-0.043 0.27574,0.0329 0.40753,0 0.87091,-0.21773 0.69658,-0.41621 1.22257,-0.67921 0.16698,-0.0835 0.37002,-0.0665 0.54336,-0.13584 0.17837,-0.0713 0.24768,-0.30096 0.40753,-0.40752 0.13016,-0.0868 0.40652,-0.13484 0.54336,-0.27168 0.032,-0.032 -0.032,-0.10383 0,-0.13585 0.0716,-0.0716 0.20009,-0.0642 0.27168,-0.13584 0.032,-0.032 -0.032,-0.10382 0,-0.13584 0.032,-0.032 0.0953,0.0202 0.13585,0 0.25819,-0.12909 0.45385,-0.49892 0.6792,-0.67921 0.1756,-0.14048 0.40395,-0.22163 0.54337,-0.40752 0.0979,-0.13061 0.15624,-0.29208 0.27168,-0.40752 0.0803,-0.4544 0.58416,-0.31248 0.81505,-0.54337 0.0716,-0.0716 0.0906,-0.18112 0.13584,-0.27168 0.18112,-0.18112 0.34659,-0.37939 0.54337,-0.54337 0.13311,-0.11093 0.47466,-0.20142 0.54336,-0.40752 0.0286,-0.0859 -0.0405,-0.19068 0,-0.27168 0.0202,-0.0405 0.11073,0.0377 0.13584,0 0.25581,-0.38372 0.20077,-0.94491 0.40753,-1.35842 0.073,-0.14602 0.21105,-0.25594 0.27168,-0.40752 0.11054,-0.27635 0.0776,-0.65989 0.13584,-0.95089 0.0435,-0.21734 0.2013,-0.46806 0.27168,-0.67921 0.18283,-0.54848 -0.22361,-2.2696 0,-2.71682 0.0286,-0.0573 0.10721,-0.0786 0.13585,-0.13585 0.082,-0.1641 0.0169,-2.51355 0,-2.58098 -0.0155,-0.0621 -0.1156,-0.0751 -0.13585,-0.13584 -0.12216,-0.3665 -0.0602,-0.84447 -0.13584,-1.22257 -0.0198,-0.0993 -0.11598,-0.1724 -0.13584,-0.27169 -0.0266,-0.1332 0.0329,-0.27574 0,-0.40752 -0.0311,-0.12425 -0.23118,-0.15018 -0.27168,-0.27168 -0.0656,-0.19676 -0.0396,-0.48678 -0.13584,-0.67921 -0.40102,-0.80203 -1.01209,-1.57933 -1.35842,-2.44514 -0.15137,-0.37844 -0.41347,-0.69707 -0.54336,-1.08674 -0.0286,-0.0859 0.064,-0.20764 0,-0.27168 -0.032,-0.032 -0.0906,0 -0.13584,0 -0.0906,-0.13584 -0.21105,-0.25594 -0.27169,-0.40752 -0.0336,-0.0841 0.0405,-0.19068 0,-0.27168 -0.0202,-0.0405 -0.10382,0.032 -0.13584,0 -0.26264,-0.26264 -0.39267,-0.78535 -0.54336,-1.08674 -0.19259,-0.38517 -1.08673,-1.41465 -1.08673,-1.63009" id="path1" />
    <path style="fill:none;stroke:#000000;stroke-width:0.529167" d="m 84.900838,141.9542 c 0.194842,-1.00265 1.053661,-1.6998 1.494255,-2.58099 0.181121,-0.36224 0.392951,-0.71069 0.543364,-1.08673 0.03363,-0.0841 -0.02864,-0.18577 0,-0.27168 0.198377,-0.59513 1.256332,-1.40342 1.630096,-1.90178 0.105312,-0.14041 0.407429,-0.81509 0.679206,-0.6792 0.681432,0.34071 0.809599,1.74413 0.950892,2.3093 0.09019,0.36074 0.317336,0.72598 0.407521,1.08673 0.22904,0.91615 -0.494138,-0.7599 0.135843,0.81505 0.02379,0.0594 0.115591,0.0751 0.135842,0.13584 0.02864,0.0859 0,0.18112 0,0.27168 0.04528,0.13584 0.07944,0.27591 0.13584,0.40753 0.07977,0.18612 0.216053,0.34865 0.271685,0.54336 0.125581,0.43955 -0.119671,0.43178 0.135839,0.81505 0.05518,0.0828 0.320133,0.6792 0.407525,0.6792 0.06404,0 -0.0718,-0.13583 -0.135843,-0.13583" id="path2" />
    <path style="fill:none;stroke:#000000;stroke-width:0.529167" d="m 98.21329,142.36173 c 1.052684,-0.92673 1.485423,-2.29754 2.3093,-3.39604 0.44792,-0.59723 0.89598,-1.65611 1.22257,-2.3093 0.12559,-0.25117 0.45226,-0.78068 0.67921,-0.95089 0.13061,-0.098 0.30957,-0.14107 0.40752,-0.27168 0.0543,-0.0725 -0.0502,-0.19633 0,-0.27169 0.0562,-0.0842 0.20009,-0.0642 0.27169,-0.13584 0.1145,-0.1145 0.14174,-0.49612 0.40752,-0.40752 0.50946,0.16982 0.43442,0.46131 0.67921,0.95089 0.5829,1.16581 1.18282,2.36564 1.76593,3.53187 0.10125,0.2025 0.33594,0.32858 0.40753,0.54337 0.043,0.12887 -0.0699,0.29104 0,0.40752 0.11648,0.19414 0.29104,0.34923 0.40752,0.54337 0.0233,0.0388 0,0.0906 0,0.13584 0.0453,0.0906 0.0751,0.19068 0.13585,0.27168 0.0768,0.10246 0.2144,0.15713 0.27168,0.27168 0.0679,0.13584 -0.034,0.27169 0,0.40753 0.0347,0.13891 0.10111,0.26861 0.13584,0.40752 0.0221,0.0885 0.20767,0.19985 0.13584,0.27169 -0.032,0.032 -0.0906,0 -0.13584,0" id="path3" />
    <path style="fill:#000000;fill-opacity:1;stroke:#000000;stroke-width:0.529167;stroke-opacity:1" d="m 88.514067,151.81387 c -0.08004,-0.032 -0.208116,-0.1761 -0.240136,-0.0961 -0.03202,0.08 0.321924,0.12331 0.240136,0.0961 -0.02267,-0.008 -0.429614,-0.14145 -0.480272,-0.19211 -0.01593,-0.0159 -0.01593,-0.36827 0,-0.38421 0.01132,-0.0113 0.04087,0.0143 0.04803,0 0.02148,-0.043 -0.03396,-0.11012 0,-0.14409 0.02265,-0.0226 0.07341,0.0226 0.09605,0 0.09697,-0.097 0.126997,-0.18356 0.240136,-0.24013 0.04296,-0.0215 0.09605,0 0.144081,0 0.05858,0 0.232693,-0.0277 0.288163,0 0.04848,0.0242 0.271984,0.35185 0.288163,0.38422 0.01601,0.032 0.01154,0.27663 0,0.28816 -0.01132,0.0113 -0.0367,-0.0113 -0.04803,0 -0.09937,0.0994 0.15185,-0.004 -0.04803,0.096 -0.142843,0.0714 -0.37964,0.13637 -0.528299,0.19211 z" id="path7" />
    <path style="fill:#000000;fill-opacity:1;stroke:#000000;stroke-width:0.529167;stroke-opacity:1" d="m 100.13664,152.15006 c -0.08,-0.032 -0.208115,-0.1761 -0.240135,-0.0961 -0.03202,0.08 0.321925,0.12331 0.240135,0.0961 -0.0227,-0.008 -0.429613,-0.14145 -0.480271,-0.19211 -0.01593,-0.0159 -0.01593,-0.36827 0,-0.38421 0.01132,-0.0113 0.04087,0.0143 0.04803,0 0.02148,-0.043 -0.03396,-0.11012 0,-0.14409 0.02265,-0.0226 0.07341,0.0226 0.09605,0 0.09697,-0.097 0.126997,-0.18356 0.240141,-0.24013 0.043,-0.0215 0.0961,0 0.14408,0 0.0586,0 0.23269,-0.0277 0.28816,0 0.0485,0.0242 0.27198,0.35185 0.28816,0.38422 0.016,0.032 0.0115,0.27663 0,0.28816 -0.0113,0.0113 -0.0367,-0.0113 -0.048,0 -0.0994,0.0994 0.15185,-0.004 -0.048,0.096 -0.14284,0.0714 -0.37964,0.13637 -0.5283,0.19211 z" id="path8" />
    <path style="fill:none;fill-opacity:1;stroke:#000000;stroke-width:0.529167;stroke-opacity:1" d="m 116.60995,163.38842 c 0.0117,-0.35588 -0.0169,-0.81366 0.096,-1.15265 0.0622,-0.18655 0.23542,-0.36533 0.28817,-0.57633 0.0155,-0.0621 -0.0202,-0.13135 0,-0.19211 0.0496,-0.14895 0.22721,-0.32789 0.28816,-0.48027 0.0506,-0.12641 0.15968,-0.70236 0.19211,-0.86449 0.053,-0.26479 -0.0851,-0.60926 0,-0.86449 0.11869,-0.35608 0.0961,0.11709 0.0961,-0.1921 0,-0.53968 -0.0713,-1.1307 0.0961,-1.63293 0.0647,-0.19397 -0.0905,-0.49148 0,-0.67238 0.12677,-0.25354 0.0243,-0.38556 0.096,-0.67238 0.0508,-0.20334 0.0961,-0.0736 0.0961,-0.38422 0,-0.27842 -0.008,0.14265 0.096,-0.48027 0.0779,-0.46729 -0.0779,-0.97352 0,-1.44081 0.007,-0.0447 0.0817,-0.0531 0.0961,-0.0961 0.0608,-0.0862 -0.0304,-0.19703 0,-0.28816 0.0746,-0.22366 0.13511,-0.44437 0.19211,-0.67238 0.0361,-0.14459 -0.0473,-0.33832 0,-0.48027 0.23192,-0.69576 -0.0277,0.15144 0.19211,-0.28816 0.04,-0.08 -0.0609,-0.32329 0,-0.38422 0.0716,-0.0716 0.24288,-0.006 0.28816,-0.0961 0.0806,-0.1611 0.038,-0.42217 0.19211,-0.57632 0.0716,-0.0716 0.32995,-0.13784 0.38422,-0.19211 0.0226,-0.0226 -0.0226,-0.0734 0,-0.096 0.058,-0.058 0.48524,0 0.57633,0 0.34222,0 1.15948,0.007 1.44081,0.28816 0.0226,0.0226 -0.0286,0.0817 0,0.096 0.0573,0.0286 0.13484,-0.0286 0.19211,0 0.29632,0.14816 0.4837,0.4208 0.67238,0.67238 0.17829,0.23771 0.1549,2.84139 0,3.07374 -0.0251,0.0377 -0.064,0.064 -0.0961,0.0961 0,0.064 0.0286,0.13483 0,0.1921 -0.0211,0.0421 -0.33405,0.0502 -0.19211,0.19211 0.0751,0.0751 0.1671,-0.0836 0.19211,-0.0961 0.10381,-0.0519 1.72645,-0.12891 1.82503,-0.0961 0.0859,0.0286 0.11111,0.15161 0.19211,0.19211 0.0286,0.0143 0.0734,-0.0226 0.0961,0 0.0226,0.0226 -0.0226,0.0734 0,0.0961 0.0226,0.0226 0.0674,-0.0143 0.0961,0 0.081,0.0405 0.10619,0.16347 0.1921,0.19211 0.0608,0.0202 0.14683,-0.0453 0.19211,0 0.0453,0.0453 -0.0238,0.13265 0,0.1921 0.37331,0.93326 0.001,-0.12659 0.38422,0.38422 0.0311,0.0415 0.15032,0.39669 0.19211,0.48027 0.045,0.0901 -0.0599,1.65671 -0.096,1.72898 -0.0559,0.11189 -0.13617,0.17628 -0.19211,0.28816 -0.12647,0.25294 0.0897,0.69131 0,0.96055 -0.0143,0.043 -0.0817,0.0531 -0.0961,0.096 -0.0587,0.17621 -0.0241,0.36037 -0.096,0.57633 -0.0202,0.0608 0.0453,0.14683 0,0.19211 -0.0816,0.0816 -0.20653,0.11048 -0.28817,0.19211 -0.0226,0.0226 0.0226,0.0734 0,0.0961 -0.0444,0.0444 -0.23016,-0.029 -0.28816,0 -0.0405,0.0202 -0.0556,0.0758 -0.0961,0.096 -0.15369,0.0769 -0.42264,-0.0768 -0.57633,0 -0.20028,0.10015 -0.42072,0.19211 -0.67238,0.19211 -0.16928,0 -0.95707,-0.0995 -1.0566,0 -0.0315,0.0315 -0.15626,0.31254 -0.19211,0.38422 -0.0286,0.0573 0.0453,0.14683 0,0.19211 -0.0226,0.0226 -0.0734,-0.0226 -0.096,0 -0.0767,0.0767 0.0504,0.3795 0,0.48027 -0.0725,0.14494 -0.13238,0.20502 -0.19211,0.38422 -0.0202,0.0607 0.0453,0.14683 0,0.19211 -0.0736,0.0736 -0.0857,-0.0312 -0.19211,0.28816 -0.0486,0.14581 -0.0147,0.49495 -0.0961,0.57633 -0.0226,0.0226 -0.0734,-0.0226 -0.0961,0 -0.064,0.064 0.064,0.32018 0,0.38421 -0.0906,0.0906 -0.25614,0 -0.38421,0" id="path13" />
    <path style="fill:none;fill-opacity:1;stroke:#000000;stroke-width:0.529167;stroke-opacity:1" d="m 122.56532,157.72122 c 0.85783,-0.13832 1.72801,-0.0961 2.59347,-0.0961" id="path14" />
    <path style="fill:none;fill-opacity:1;stroke:#000000;stroke-width:0.529167;stroke-opacity:1" d="m 122.46926,159.16203 c 0.12808,0.032 0.3522,0.22413 0.38422,0.096 0.032,-0.12807 -0.51623,-0.096 -0.38422,-0.096 0.41747,0 0.83125,0.096 1.24871,0.096 0.31324,0 1.03462,-0.11803 1.24871,0.0961" id="path15" />
    <path style="fill:none;fill-opacity:1;stroke:#000000;stroke-width:0.529167;stroke-opacity:1" d="m 118.24287,146.86707 c 0.37637,0.70786 0.82769,1.38562 1.24871,2.01714 0.0119,0.0179 0.0862,0.37438 0.0961,0.38422 0.12807,0.12808 0.096,-0.16009 0.096,0.0961" id="path16" />
    <path style="fill:none;fill-opacity:1;stroke:#000000;stroke-width:0.529167;stroke-opacity:1" d="m 120.54817,146.57891 c 0,0.12808 -0.12807,0.38422 0,0.38422 0.12808,0 -0.0311,-0.50846 0,-0.38422 0.0626,0.25043 0.0675,0.51188 0.0961,0.76844 0.008,0.0729 -0.0323,0.22358 0,0.28816 0.27386,0.54772 0.19211,1.35045 0.19211,2.01714" id="path17" />
    <path style="fill:none;fill-opacity:1;stroke:#000000;stroke-width:0.529167;stroke-opacity:1" d="m 122.08504,149.7487 c 0.064,-0.16009 0.3522,-0.41623 0.19211,-0.48027 -0.16009,-0.064 -0.28775,0.62374 -0.19211,0.48027 0.15886,-0.23828 0.24514,-0.51809 0.38422,-0.76843 0.1053,-0.18953 0.35982,-0.2996 0.48027,-0.48027 0.0355,-0.0533 -0.0286,-0.13484 0,-0.19211 0.0673,-0.13456 0.27696,-0.27696 0.38422,-0.38422 0.032,-0.032 0.064,-0.064 0.0961,-0.0961 0,-0.032 -0.0226,-0.0734 0,-0.096 0.059,-0.059 0.22383,-0.0635 0.28816,-0.19211 0.0143,-0.0286 -0.0226,-0.0734 0,-0.096 0.0226,-0.0226 0.0734,0.0226 0.0961,0 0.10265,-0.10265 -0.13654,-0.19211 0.0961,-0.19211" id="path18" />
    </g>
</svg>